<svg width="244" height="34" viewBox="0 0 244 34" fill="none" xmlns="http://www.w3.org/2000/svg">
<path d="M0 19.3551C0 17.1871 0.431844 15.2673 1.29553 13.5956C2.18462 11.9239 3.37854 10.6309 4.8773 9.71673C6.40145 8.77641 8.09072 8.30624 9.94511 8.30624C11.3168 8.30624 12.6632 8.61968 13.9841 9.24657C15.3305 9.84733 16.3974 10.6571 17.1848 11.6758V1.25377H21.5668V30.2473H17.1848V26.9953C16.4736 28.0401 15.4829 28.9021 14.2127 29.5812C12.968 30.2603 11.5328 30.5999 9.90701 30.5999C8.07802 30.5999 6.40145 30.1297 4.8773 29.1894C3.37854 28.2229 2.18462 26.8908 1.29553 25.193C0.431844 23.469 0 21.5231 0 19.3551ZM17.1848 19.4335C17.1848 17.9446 16.88 16.6517 16.2704 15.5546C15.6861 14.4576 14.9113 13.6217 13.946 13.0471C12.9807 12.4724 11.9392 12.1851 10.8215 12.1851C9.70378 12.1851 8.66228 12.4724 7.69698 13.0471C6.73168 13.5956 5.9442 14.4184 5.33454 15.5154C4.75028 16.5864 4.45815 17.8663 4.45815 19.3551C4.45815 20.844 4.75028 22.15 5.33454 23.2731C5.9442 24.3963 6.73168 25.2583 7.69698 25.859C8.68768 26.4337 9.72919 26.721 10.8215 26.721C11.9392 26.721 12.9807 26.4337 13.946 25.859C14.9113 25.2844 15.6861 24.4486 16.2704 23.3515C16.88 22.2283 17.1848 20.9223 17.1848 19.4335Z" fill="white"/>
<path d="M46.5147 18.9241C46.5147 19.7339 46.4639 20.4652 46.3623 21.1182H30.3206C30.4476 22.8422 31.0699 24.2265 32.1876 25.2713C33.3054 26.3162 34.6771 26.8386 36.3029 26.8386C38.6399 26.8386 40.2911 25.8329 41.2564 23.8217H45.9431C45.3081 25.8068 44.1523 27.4393 42.4757 28.7192C40.8245 29.973 38.7669 30.5999 36.3029 30.5999C34.2961 30.5999 32.4925 30.1428 30.8921 29.2286C29.3172 28.2882 28.0724 26.9822 27.1579 25.3105C26.2688 23.6127 25.8243 21.6537 25.8243 19.4335C25.8243 17.2132 26.2561 15.2673 27.1198 13.5956C28.0089 11.8978 29.2409 10.5918 30.8159 9.67755C32.4163 8.76334 34.2453 8.30624 36.3029 8.30624C38.2843 8.30624 40.0497 8.75029 41.5993 9.63837C43.1489 10.5265 44.3555 11.7802 45.2192 13.3997C46.0829 14.993 46.5147 16.8345 46.5147 18.9241ZM41.9803 17.5136C41.9549 15.8681 41.3834 14.549 40.2657 13.5564C39.1479 12.5638 37.7635 12.0676 36.1123 12.0676C34.6136 12.0676 33.3308 12.5638 32.2639 13.5564C31.1969 14.5229 30.5619 15.8419 30.3587 17.5136H41.9803Z" fill="white"/>
<path d="M58.9056 26.2509L64.8498 8.65886H69.4604L61.4586 30.2473H56.2764L48.3127 8.65886H52.9614L58.9056 26.2509Z" fill="white"/>
<path d="M74.4966 30.5215C73.7092 30.5215 73.0487 30.2473 72.5152 29.6987C71.9818 29.1502 71.7151 28.4711 71.7151 27.6614C71.7151 26.8516 71.9818 26.1725 72.5152 25.624C73.0487 25.0754 73.7092 24.8012 74.4966 24.8012C75.2587 24.8012 75.9065 25.0754 76.4399 25.624C76.9734 26.1725 77.2401 26.8516 77.2401 27.6614C77.2401 28.4711 76.9734 29.1502 76.4399 29.6987C75.9065 30.2473 75.2587 30.5215 74.4966 30.5215Z" fill="white"/>
<path d="M90.7369 12.3026H86.8503V30.2473H82.4684V12.3026H79.9916V8.65886H82.4684V7.13083C82.4684 4.6494 83.1034 2.84711 84.3736 1.72394C85.6691 0.574645 87.6886 0 90.4321 0V3.72213C89.1111 3.72213 88.184 3.98334 87.6505 4.50574C87.117 5.00203 86.8503 5.87706 86.8503 7.13083V8.65886H90.7369V12.3026Z" fill="white"/>
<path d="M96.7966 5.7987C96.0091 5.7987 95.3487 5.52443 94.8152 4.97591C94.2818 4.42738 94.015 3.74826 94.015 2.93853C94.015 2.1288 94.2818 1.44967 94.8152 0.901149C95.3487 0.352623 96.0091 0.0783598 96.7966 0.0783598C97.5587 0.0783598 98.2065 0.352623 98.7399 0.901149C99.2734 1.44967 99.5401 2.1288 99.5401 2.93853C99.5401 3.74826 99.2734 4.42738 98.7399 4.97591C98.2065 5.52443 97.5587 5.7987 96.7966 5.7987ZM98.9304 8.65886V30.2473H94.5866V8.65886H98.9304Z" fill="white"/>
<path d="M115.226 8.30624C116.878 8.30624 118.351 8.65886 119.646 9.36411C120.967 10.0694 121.996 11.1142 122.733 12.4985C123.47 13.8829 123.838 15.5546 123.838 17.5136V30.2473H119.532V18.1797C119.532 16.2468 119.062 14.771 118.122 13.7523C117.182 12.7075 115.9 12.1851 114.274 12.1851C112.648 12.1851 111.352 12.7075 110.387 13.7523C109.447 14.771 108.977 16.2468 108.977 18.1797V30.2473H104.634V8.65886H108.977V11.1272C109.689 10.2391 110.59 9.54695 111.683 9.05067C112.8 8.55438 113.982 8.30624 115.226 8.30624Z" fill="white"/>
<path d="M127.931 19.3551C127.931 17.1871 128.363 15.2673 129.226 13.5956C130.115 11.9239 131.309 10.6309 132.808 9.71673C134.332 8.77641 136.009 8.30624 137.838 8.30624C139.489 8.30624 140.924 8.6458 142.144 9.32493C143.388 9.97794 144.379 10.8007 145.116 11.7933V8.65886H149.498V30.2473H145.116V27.0345C144.379 28.0532 143.376 28.9021 142.105 29.5812C140.835 30.2603 139.387 30.5999 137.762 30.5999C135.958 30.5999 134.307 30.1297 132.808 29.1894C131.309 28.2229 130.115 26.8908 129.226 25.193C128.363 23.469 127.931 21.5231 127.931 19.3551ZM145.116 19.4335C145.116 17.9446 144.811 16.6517 144.201 15.5546C143.617 14.4576 142.842 13.6217 141.877 13.0471C140.911 12.4724 139.87 12.1851 138.752 12.1851C137.635 12.1851 136.593 12.4724 135.628 13.0471C134.662 13.5956 133.875 14.4184 133.265 15.5154C132.681 16.5864 132.389 17.8663 132.389 19.3551C132.389 20.844 132.681 22.15 133.265 23.2731C133.875 24.3963 134.662 25.2583 135.628 25.859C136.618 26.4337 137.66 26.721 138.752 26.721C139.87 26.721 140.911 26.4337 141.877 25.859C142.842 25.2844 143.617 24.4486 144.201 23.3515C144.811 22.2283 145.116 20.9223 145.116 19.4335Z" fill="white"/>
<path d="M165.796 8.30624C167.447 8.30624 168.92 8.65886 170.216 9.36411C171.537 10.0694 172.566 11.1142 173.302 12.4985C174.039 13.8829 174.407 15.5546 174.407 17.5136V30.2473H170.102V18.1797C170.102 16.2468 169.632 14.771 168.692 13.7523C167.752 12.7075 166.469 12.1851 164.843 12.1851C163.217 12.1851 161.922 12.7075 160.957 13.7523C160.017 14.771 159.547 16.2468 159.547 18.1797V30.2473H155.203V8.65886H159.547V11.1272C160.258 10.2391 161.16 9.54695 162.252 9.05067C163.37 8.55438 164.551 8.30624 165.796 8.30624Z" fill="white"/>
<path d="M178.5 19.4335C178.5 17.2132 178.932 15.2673 179.796 13.5956C180.685 11.8978 181.904 10.5918 183.454 9.67755C185.003 8.76334 186.781 8.30624 188.788 8.30624C191.329 8.30624 193.424 8.93313 195.075 10.1869C196.752 11.4145 197.882 13.1777 198.467 15.4762H193.78C193.399 14.4053 192.789 13.5695 191.951 12.9687C191.113 12.3679 190.058 12.0676 188.788 12.0676C187.01 12.0676 185.588 12.7206 184.521 14.0266C183.479 15.3065 182.958 17.1088 182.958 19.4335C182.958 21.7582 183.479 23.5735 184.521 24.8795C185.588 26.1856 187.01 26.8386 188.788 26.8386C191.303 26.8386 192.967 25.7023 193.78 23.4299H198.467C197.857 25.624 196.714 27.374 195.037 28.68C193.361 29.9599 191.278 30.5999 188.788 30.5999C186.781 30.5999 185.003 30.1428 183.454 29.2286C181.904 28.2882 180.685 26.9822 179.796 25.3105C178.932 23.6127 178.5 21.6537 178.5 19.4335Z" fill="white"/>
<path d="M222.038 18.9241C222.038 19.7339 221.987 20.4652 221.886 21.1182H205.844C205.971 22.8422 206.593 24.2265 207.711 25.2713C208.829 26.3162 210.2 26.8386 211.826 26.8386C214.163 26.8386 215.814 25.8329 216.78 23.8217H221.467C220.831 25.8068 219.676 27.4393 217.999 28.7192C216.348 29.973 214.29 30.5999 211.826 30.5999C209.819 30.5999 208.016 30.1428 206.415 29.2286C204.841 28.2882 203.596 26.9822 202.681 25.3105C201.792 23.6127 201.348 21.6537 201.348 19.4335C201.348 17.2132 201.78 15.2673 202.643 13.5956C203.532 11.8978 204.764 10.5918 206.339 9.67755C207.94 8.76334 209.769 8.30624 211.826 8.30624C213.808 8.30624 215.573 8.75029 217.123 9.63837C218.672 10.5265 219.879 11.7802 220.743 13.3997C221.606 14.993 222.038 16.8345 222.038 18.9241ZM217.504 17.5136C217.478 15.8681 216.907 14.549 215.789 13.5564C214.671 12.5638 213.287 12.0676 211.636 12.0676C210.137 12.0676 208.854 12.5638 207.787 13.5564C206.72 14.5229 206.085 15.8419 205.882 17.5136H217.504Z" fill="white"/>
<path d="M74.4972 30.5216C73.7097 30.5216 73.0492 30.2473 72.5158 29.6988C71.9823 29.1503 71.7156 28.4712 71.7156 27.6614C71.7156 26.8517 71.9823 26.1726 72.5158 25.624C73.0492 25.0755 73.7097 24.8013 74.4972 24.8013C75.2592 24.8013 75.907 25.0755 76.4405 25.624C76.9739 26.1726 77.2406 26.8517 77.2406 27.6614C77.2406 28.4712 76.9739 29.1503 76.4405 29.6988C75.907 30.2473 75.2592 30.5216 74.4972 30.5216Z" fill="#9BC9FF"/>
<path d="M243.665 24.5437C243.665 25.6497 243.345 26.6893 242.704 27.6626C242.088 28.6359 241.165 29.4543 239.935 30.1179C238.73 30.7815 237.294 31.1797 235.628 31.3124V34H233.128V31.3124C230.718 31.1133 228.769 30.4608 227.282 29.3548C225.795 28.2488 225.052 26.7889 225.052 24.975H229.744C229.82 25.8377 230.141 26.5566 230.705 27.1317C231.269 27.6847 232.077 28.0386 233.128 28.1935V20.8939C231.41 20.5178 230.013 20.1418 228.936 19.7657C227.859 19.3676 226.936 18.7482 226.167 17.9076C225.424 17.0671 225.052 15.9168 225.052 14.4569C225.052 12.6209 225.795 11.1057 227.282 9.91124C228.769 8.69463 230.718 7.98679 233.128 7.78771V5.10012H235.628V7.78771C237.884 7.96467 239.691 8.58403 241.05 9.6458C242.434 10.6854 243.216 12.1232 243.396 13.9592H238.704C238.627 13.2735 238.32 12.6652 237.781 12.1343C237.243 11.5813 236.525 11.2053 235.628 11.0062V18.1731C237.345 18.527 238.743 18.9031 239.819 19.3012C240.896 19.6773 241.806 20.2856 242.55 21.1261C243.293 21.9446 243.665 23.0837 243.665 24.5437ZM229.513 14.2578C229.513 15.1648 229.82 15.8726 230.436 16.3814C231.077 16.8901 231.974 17.2993 233.128 17.609V10.9066C232.025 11.0172 231.141 11.3601 230.474 11.9352C229.833 12.5103 229.513 13.2845 229.513 14.2578ZM235.628 28.1935C236.756 28.0386 237.64 27.6515 238.281 27.0322C238.922 26.3907 239.243 25.6276 239.243 24.7428C239.243 23.8579 238.922 23.1722 238.281 22.6856C237.666 22.1768 236.781 21.7676 235.628 21.4579V28.1935Z" fill="#9BC9FF"/>
</svg>
